<?xml version="1.0" encoding="utf-8"?>
<!-- Generator: Adobe Illustrator 24.1.1, SVG Export Plug-In . SVG Version: 6.00 Build 0)  -->
<svg version="1.1" id="Слой_1" xmlns="http://www.w3.org/2000/svg" xmlns:xlink="http://www.w3.org/1999/xlink" x="0px" y="0px"
	 viewBox="0 0 569.4 513.4" style="enable-background:new 0 0 569.4 513.4;" xml:space="preserve">
<style type="text/css">
	.st0{fill:#2F387B;}
</style>
<g id="Слой_2_1_">
	<g id="Слой_1-2">
		<path class="st0" d="M336.8,410.8c-0.3,4-0.6,8-1.3,13.5s-1.5,12.3-2,18.7s-0.5,12.3-0.5,16.3c0,2.3,0,3.3,0,4.7h-3.8
			c0.3-5.2,0.7-10.5,1.2-15.4s1.1-9.6,1.5-13.9s0.4-8.1,0.4-10.5s0-3.3,0.1-4.2c0.9-1.4,1.8-2.9,2.5-4.4
			C335.6,414,336.3,412.4,336.8,410.8z M265.9,407.4C265.9,407.4,265.9,407.4,265.9,407.4c-0.2,0.7-0.5,1.3-0.9,1.9
			c-0.7,1.4-2.1,3.9-4,7.9s-4.1,9.3-5.9,13.6s-3.2,7.6-4.8,10.7s-3.5,6.2-4.7,8.4s-1.9,3.3-2.3,4c-0.2,0.4-0.5,0.7-0.8,1.1l-0.1,0.1
			c-0.6-2.6-1.2-5.2-1.8-7.4s-1.1-3.9-1.4-5c-0.8-1.9-0.2-4.1,1.4-5.4c1.3-1.4,3.6-3.2,6.6-6.3c3.4-3.6,6.7-7.4,9.7-11.4
			c2.9-3.8,5.1-7,6.4-9s1.8-2.6,2.1-2.9c0.1-0.1,0.2-0.2,0.3-0.3C265.8,407.4,265.9,407.4,265.9,407.4L265.9,407.4z M333.4,324.1
			c0.6,1.9,1.1,3.8,1.9,6.9s1.8,7.4,2.4,11.3c0.6,4.2,0.9,8.5,0.8,12.7c-0.1,6.1-0.6,12.2-1.5,18.3c-1.1,6.7-2.7,13.4-4.9,19.8
			c-1.9,5.7-4.3,11.3-7.1,16.7c-2.7,5.1-5.5,9.8-8.4,14.4c-0.8-2.7-1.8-5.3-2.9-7.9c-1-2.2-2.2-4.3-3.6-6.2
			c-1.2-1.8-2.4-3.3-3.6-4.8c0,1.9,0,3.8,0,5.9c-0.1,2.8-0.5,5.5-0.9,8.2c-0.6,3.8-1.7,9.1-3,14.2c-1.3,5-2.9,9.8-4.9,14.6
			c-1.9,4.6-4.1,9-6.3,13.5c1.6-10.8,3.1-21.6,4.2-30.4s1.6-15.6,2.2-22.5c-2.4,4.7-4.7,9.4-7,13.7c-1.9,3.8-4,7.4-6.3,10.9
			c-1.4,2-3,3.9-4.9,5.5c1.9-4,3.9-8,6.9-14.8s7.3-16.5,11.6-28.4s8.8-25.8,13.2-39.8c0.3,3.6,0.7,7.2,1.6,15.4s2.5,21.1,4.1,34
			c1-1.7,2.1-3.4,4.3-11.1s5.5-21.4,7.8-34s3.3-24.4,4.4-36.1L333.4,324.1z M275,309.1c-3.7,7.4-7.4,14.8-9.9,20.4s-3.5,9.3-6,16.7
			s-6.3,18.4-9.1,25.9s-4.9,11.2-6.6,13.9c-1.4,2.2-2.9,4.2-4.7,6.1c4-16.3,8-32.6,10.8-43.7s4.2-17.2,5.2-20.4s1.8-3.6,5.1-6.3
			S269,314,275,309.1z M189.4,292.7c3.4,10.3,6.7,20.6,10.3,32.4s7.4,25,11.1,38s7.4,25.5,11.9,40.8s9.9,33.3,15.3,51.3
			c-1.1-1.4-2-2.9-2.9-4.4c-1.4-2.4-2.6-4.9-3.6-7.5c-1.2-3.1-2.4-6.9-4.8-14.7s-6-19.6-12.8-41.4s-16.7-53.6-26.6-85.3L189.4,292.7
			z M211.5,278.1c-4.4,1.6-8.9,3.1-14,4.5c-5.6,1.5-11.3,2.7-17,3.6c-6.1,1-12.5,1.6-18.9,2.2c4.8-1.6,9.6-3.1,15.4-4.6
			s12.7-2.7,18.6-3.6S206.5,278.7,211.5,278.1L211.5,278.1z M328.6,238.4c-2,9.6-3.9,19.3-6.3,29.3c-2.5,11-5.7,21.8-9.5,32.5
			c-4.5,12.2-10.6,26.4-17.2,40.1c-6.6,13.9-13.9,27.5-22.1,40.6c-8.5,13.4-18.4,26.9-28.2,40.4c0.9-1.9,1.8-3.7,3.6-7.8
			s4.7-10.5,8.4-19.4c3.6-8.9,8.1-20.3,12.6-31.7c-0.6,3.8-1.5,7.5-2.6,11.2c-1.3,4.3-3.2,9.5-5.1,14.6c2.9-4.2,5.8-8.4,9.3-14.5
			s7.6-13.8,13-25.1s12.1-26.1,18.1-39.8s11.2-26.3,15.5-37.8S325.4,248.9,328.6,238.4L328.6,238.4z M243.1,163
			c3.8,7.2,7.7,14.3,10.6,19.8c2.9,5.5,4.9,9.4,6.7,11.8c1.2,2,2.9,3.5,5,4.5c2.1,0.9,4.4,1.6,6.7,1.9c2.6,0.4,5.5,0.8,8.4,1
			c3,0.4,6,0.4,8.9,0c3.5-0.7,6.9-1.8,10.1-3.3c3.5-1.6,6.9-3.4,10.3-5.3c-4.7,4.4-9.3,8.8-13,12.4s-6.3,6.4-8.4,8.5
			s-3.5,3.2-4.9,4.5c-2.5-1.5-5.1-3.1-8.3-5.3c-3.8-2.5-7.4-5.2-10.9-8.1c-3.6-3-6.8-6.2-10-9.3c4.2,6,8.4,12,12.8,17.7
			s9.1,11.2,12,14.4s4.2,3.9,5.1,4.1s1.6-0.4,6.2-3.9s13.2-9.9,19.1-14.6s9.1-7.7,12.2-10.7c0,6.5-0.7,13-2,19.4
			c-2.1,9.2-5.3,18.2-9.4,26.7c-4.6,9.5-10.3,18.4-16.9,26.6c-6.7,8.2-13.9,16-21.5,23.4c-7.2,7-13.9,13.2-17.8,17s-4.8,5-5.8,6.7
			c-1.5,2.5-2.6,5.2-3.3,8c-1.3,4.1-2.7,10.3-3.9,15.3s-2.3,8.8-3.4,12.7V355c0-3.8,0.1-11.3,0.6-16.9c0.4-4.4,1.2-8.8,2.3-13
			c8.3-10.5,16.5-21.1,25-31.1s17.4-19.4,24.1-27.3c5.7-6.4,10.7-13.3,15-20.7c3.4-6.1,6.3-12.4,8.6-19c1.5-4.3,2.7-8.8,3.7-13.3
			c-6.4,8.1-12.8,16.2-21.7,26.6s-20.1,23.1-30,33.6s-18.4,18.9-23.7,23.8c-2.8,2.8-5.9,5.3-9.1,7.6c-0.8-4.2-1.3-8.4-1.4-12.7
			c0-5.2,0.4-10.3,1.1-15.5c0.7-5.1,1.5-9.8,2.4-13.5s1.7-6.6,2.6-9.4l16.5,12.1l27.3-26c-4.4,3.5-8.8,7-12.4,9.3
			c-2.5,1.8-5.3,3.1-8.3,4c-2.1,0.5-3.5,0.3-7.6-2.4s-10.9-8-17.7-13.2c1.3-2.5,2.6-5,3.8-7c1-1.7,2.2-3.4,3.4-4.9
			c3.4,3.6,6.8,7.3,9.7,10.6s5.4,6.3,7.4,7.9s3.5,1.8,6,1c2.8-1.1,5.5-2.4,8.1-4.1c1.4-0.9,2.7-1.9,3.8-3.2
			c-3.1,1.3-6.3,2.6-8.1,3.2s-2.5,0.6-3.8-1.1c-1.9-2.6-3.7-5.2-5.4-8c-1.8-3.1-3.8-6-6-8.9c-2.5-3.2-5.8-6.8-7.8-9.2
			s-2.6-3.4-2.6-4.6c0.2-1.4,0.8-2.7,1.6-3.8c0.5-1,1.1-1.9,1.9-2.6c0.5-0.3,0.9,0.1,2.2,2.6s3.5,7.2,6.1,11.4
			c2.5,4,5.2,7.7,8.2,11.4c-3.5-7.8-7-15.7-9.9-22s-4.9-11.2-6.4-17.1c-1.4-5.8-2.5-11.7-3.2-17.7C243.3,168.9,243.1,166,243.1,163
			L243.1,163z M235.2,157c0.1,0,0.1,0,0.1,0s0.1,0.2,0.2,1s0.1,2.4,0.3,4.4s0.6,4.5,1.2,7.4s1.3,6.1,2.2,9.1s1.9,5.6,2.4,7.4
			c0.3,1.1,0.4,2.3,0.2,3.4c-0.3,1.8-0.7,3.5-1.2,5.2c-0.6,1.9-1.4,4.4-2.3,6.9c-0.7,2.3-1.5,4.6-2.4,6.8c-0.8,1.6-1.8,3.1-2.9,4.4
			c-0.8,0.7-1.3,1.7-1.6,2.7c0,0.7,0.4,1.3,1,1.6c0.5,0.4,0.9,0.6,1.1,1.2s0.1,1.6-1,4.2s-3,6.6-4.1,9.4c-1.1,2.5-1.7,5.2-1.7,8
			c-0.2,3.7-0.2,9.4-0.2,15.3c0,5.9,0.1,11.9-0.1,16.7c-0.1,4.2-0.5,8.3-1.2,12.4c-0.7,4.2-1.7,9-2.6,13.6s-1.9,8.7-2.6,13
			c-0.7,4.4-1.1,8.9-1,13.4c0.1,4.6,0.6,9.2,0.9,12.8c0.2,3.9,0.2,7.9,0,11.8c-0.2,5.5-0.6,14-1,22.4c-4.7-14.5-9.4-29-13.6-42.8
			s-8-27-9.9-33.6l-1.9-6.6c6-1.9,11.9-3.8,15.3-4.7s4.1-0.7,4.8-0.2c0.7,0.6,1.4,1.3,2,2c0.6,0.6,1.3,1,2.1,1.3
			c0.6,0.2,1.2,0.3,1.9,0.1c0.4-0.1,0.6-0.4,0.6-1.3c-0.1-1.4-0.3-2.8-0.6-4.2c-0.4-2.1-1.1-4.2-1.8-6.3c-0.7-1.9-1.7-3.7-3-5.3
			c-0.7-0.8-1.8-1.1-2.8-0.9c-0.7,0.1-1,0.5-1.1,1.2c0,1,0,1.9-0.1,2.9c-0.2,0.8-0.6,1.2-1.8,1.5s-3.2,0.6-6.1,1s-7,1-9.3,1.2
			s-2.9,0.1-3.1-0.2s0-0.7,0.4-1.3c0.5-0.6,0.9-1.2,1.3-1.9c0.4-1.1,0.5-2.2,0.4-3.4c0.1-1.8,0.1-4.6,0.2-8.5s0.2-8.8,0.3-11.7
			s0-3.7,0.2-4.4s0.9-1.2,2.7-3.7s4.9-7,7.7-11.6s5.5-9.3,7.5-13.1c1.6-2.8,2.8-5.8,3.8-8.9c0.5-1.7,0.7-3.4,0.6-5.2
			c-0.1-1.3,0.1-2.6,0.5-3.8c0.5-1.4,1.4-3.2,2.4-5.5s2.1-5.1,3.1-7.9s1.9-5.5,3-8.5c1-3.1,2.2-6.2,3.6-9.2c1.3-2.5,2.6-4.9,4.1-7.2
			c1.1-1.9,1.8-3.1,2.2-3.7C234.7,157,235,156.9,235.2,157L235.2,157z M439.6,138.7c-0.1,0.3-0.3,0.6-0.5,0.9
			c-1.3,2-3.1,3.6-5.3,4.5c-3.6,1.5-7.4,2.5-11.3,2.9c-4.9,0.7-9.9,0.9-14.9,0.5c-5.1-0.3-10.1-1-15.1-2.2c-2.6-0.5-5-1.7-7.1-3.4
			c-0.6-0.5-1.1-0.9-1.6-1.4c0.1,0.6,0.3,1.1,0.5,1.6c1.3,2.5,3.1,4.7,5.1,6.6c2.8,2.7,6.1,4.9,9.8,6.3c4.5,1.6,9.2,2.4,14,2.3
			c4.1-0.1,8.1-1,11.8-2.6c3-1.4,5.7-3.3,8-5.7c1.9-2,3.6-4.1,5.1-6.3c1.1-1.6,1.4-2.1,1.4-2.9C439.7,139.4,439.6,138.9,439.6,138.7
			L439.6,138.7z M490.6,123.2c-0.1,0.1-0.2,0.2-0.3,0.2c-1.2,1-2.6,1.8-4,2.5c-2,1.1-4.2,2-6.5,2.5c-3.5,0.8-7.1,1.2-10.7,1.4
			c-4.2,0.3-8.5,0.3-12.7,0c-3.8-0.3-7.5-1-11.1-2.1c-2.4-0.7-4.8-1.5-7-2.5c-0.8-0.3-1.5-0.7-2.2-1.1c1.3,2,2.8,3.8,4.5,5.5
			c2.2,2.2,4.6,4.1,7.3,5.7c3.1,1.8,6.4,3.1,9.9,3.9c3.7,0.8,7.4,1,11.1,0.5c3.2-0.5,6.3-1.6,9-3.4c2.6-1.7,5.1-3.7,7.3-5.8
			c1.9-1.6,3.4-3.5,4.7-5.6C490.2,124.3,490.4,123.7,490.6,123.2L490.6,123.2z M261.1,109.6c1.4,3.4,2.7,6.9,3.7,9.2
			c0.7,2,1.8,3.7,3.4,5c2.2,1.8,4.6,3.4,7.1,4.9c2,1.3,3,1.8,3.9,1.7s1.6-0.8,2.6-1.6s2.4-2,3.7-3s2.8-1.9,4.1-2.9
			c-2.3,0.7-4.7,1.2-7.1,1.5c-2.1,0.1-4.3-0.5-6-1.7c-2.6-1.9-5.2-4-7.5-6.2C266.4,114,263.7,111.8,261.1,109.6z M402.7,105
			l-4.1,24.2c-1.3,0.1-2.5,0.3-3.9,0.5s-2.8,0.7-4.2,1.1l7.9-24.4L402.7,105z M242.7,102.7c0.6,2.4,1,4.9,1,7.3
			c0,2.4-0.6,4.9-1.6,7.1c-1.2,2.4-2.7,4.6-4.6,6.6c-2,2.3-4.6,4.7-6.7,7.6c-2.2,3.1-4.1,6.5-5.5,10.1c-1.6,3.8-2.9,7.8-4,11.8
			c-0.9,3.3-1.5,6.7-2,10.1c-0.2,2.2-0.5,4.4-1,6.6c-0.8,2.4-2.1,4.6-3.7,6.6c-2.1,2.8-5.1,6.5-7.1,9.3s-2.9,4.8-3.1,6.7
			s0.3,3.8,0.3,6.9c-0.2,4-0.8,8-1.8,11.9c-1.4,5.1-3.3,10.1-5.9,14.8c-3.3,6.6-8.5,15.7-11.7,21.8s-4.6,9-6.1,11s-2.9,2.9-4.1,4.3
			c-1,1.3-1.9,2.7-2.6,4.2l-0.5,0.9c-1-1.1-1.7-2.3-2.2-3.6c-0.3-1.4-0.1-2.8,0.7-4c0.8-1.5,2.2-3.4,4.3-6.5c2.8-4,5.3-8.1,7.6-12.4
			c2.6-4.9,4.8-10.1,6.5-15.3c1.9-5.6,3.6-11.9,5.1-17.3s2.9-9.9,4.1-13c0.9-2.2,2-4.3,3.5-6.2c1.3-1.7,2.4-3.5,3.4-5.4
			c1.3-2.8,2.5-5.8,3.5-8.7c1.4-3.8,3.1-8.7,4.6-13.3s3-8.9,3.8-11.8c0.8-2.7,1.2-5.5,1.3-8.3c0.1-3.7,0.2-9.5,0.8-14.3
			s1.7-8.9,3.6-12.1c2.1-3.2,4.9-5.8,8.2-7.6C234.6,106,238.6,104.2,242.7,102.7L242.7,102.7z M247.3,99.9
			c0.9,5.3,1.8,10.6,2.4,14.4s1.2,6,2.3,7.8s2.8,3,6.4,5.4c3.6,2.4,9.1,5.9,12.8,7.9c2.2,1.3,4.5,2.3,6.9,3c1.3,0.4,1.8,0.4,2.6,0
			c1.2-0.8,2.2-1.7,3.2-2.8c1.1-1.2,2.2-2.5,3.3-3.8c-1.6,1.1-3.2,2.1-4.8,3c-1.2,0.8-2.8,0.7-4-0.2c-1.8-1-4.3-3.3-7.1-5.4
			s-6-4-8-5.9s-2.9-3.9-3.7-7s-1.5-7.4-2.2-11.8c6.4,2.8,12.8,5.6,17.6,7.7c3.8,1.7,7.7,3,11.7,4c3,0.6,6.1,0.9,9.2,0.8
			c1.5,0,3-0.3,4.4-0.8c-3.3-0.6-6.5-1.1-8.7-1.6c-1.4-0.3-2.8-0.9-4-1.6c7.2-0.7,14.3-1.3,18.4-1.9s5-1.1,6.5-2.3s3.5-3.3,5.4-4.8
			c1.6-1.3,3.3-2.5,5.1-3.6c-2.1,2.3-4.1,4.6-5.8,6.9s-3.1,4.5-4.7,6.6c-1.6,2.2-3.5,4.2-5.7,5.9c-2.8,2-5.6,3.8-8.6,5.4
			c3.7-1,7.4-2,10.6-2.9c2.9-0.7,5.6-1.9,8.1-3.6c2.2-1.8,4.1-3.8,5.6-6.1c-0.5,4.2-0.9,8.5-1,13.3c-0.1,4.8,0,10.2-0.3,14.6
			c-0.3,3.6-1,7.2-2,10.7c-0.8,3-1.6,5.5-2.3,8.1c-1.1-2.9-2.2-5.7-3.5-8.5c-1.5-2.9-2.7-6-3.6-9.1c-1-4-1.6-8-2-12.1
			c-5.2,2.6-10.4,5.2-15,7.2c-3.8,1.7-7.7,2.9-11.7,3.9c-2.4,0.5-4.8,0.6-7.3,0.5c3.3,1.2,6.5,2.7,9.5,4.6c4.1,2.8,7.9,5.9,11.6,9.1
			c4.1,3.5,8.4,7,10.8,9.2s3.2,2.9,3.9,3.6c-3.8-2.3-7.5-4.6-11.9-7.6s-9.5-6.6-14.4-9.3s-9.5-4.4-12.9-6.1c-2.9-1.4-5.6-3.2-8-5.4
			c-2.2-1.9-4.2-4-6-6.2c-1.2-1.6-2.4-3.2-3.4-4.9c0.6,3.6,1.2,7.2,4.4,11.4c3.2,4.1,8.7,8.8,13.6,12.9s8.8,7.6,12,9.8
			c2.6,1.8,5.4,3.3,8.3,4.3c3,1.1,6.7,2.5,10,4c2.8,1.2,5.4,2.7,7.9,4.5c1.3,0.9,2.4,2.1,3.2,3.4c-3.1-1.5-6.2-3-10.2-4.6
			c-4.1-1.6-8.3-3-12.6-4.2c-3.5-0.9-5.4-1-8.2-2.6s-6.5-4.7-11.6-9.7s-11.7-11.8-15.4-15.5c-1.6-1.7-3.2-3.3-5-4.8
			c3.1,4.2,6.3,8.4,9.6,13.5c3.4,5.1,6.4,10.4,9.1,15.9c2.2,4.8,3.1,8.3,4.6,11.1c1.4,2.5,3.3,4.7,5.6,6.4c1.8,1.4,4,2.4,6.3,2.7
			c3.2,0.4,6.5,0.6,9.8,0.4c3.7-0.1,7.6-0.3,11.5-0.5c-4.2,1.6-8.6,2.7-13.1,3.3c-4.7,0.4-9.4,0.1-14-0.9c-4-0.9-6.7-2.4-8.7-5.2
			s-3.1-7-6-13.3c-3.2-6.8-6.7-13.5-10.7-19.9c-2.4-3.8-5.1-7.3-8.3-10.5c-1.9,3.6-3.7,7.2-4.9,9.6s-1.7,3.3-2.2,4.3
			c-0.7-1.9-1.1-3.8-1.3-5.8c-0.1-2,0.4-4.1,1.7-7.6s3.4-8.3,4.9-12.5c1.5-4.1,2.5-8.3,3.1-12.6C246.9,110.8,247.1,105.4,247.3,99.9
			L247.3,99.9z M419.4,95.1c0.8,2.3,1.6,4.6,2.7,7.9c1.4,4.3,3.1,8.6,4.9,12.8c2.3,4.9,5.3,10.3,8.3,15.7c-2-0.6-4.1-1.1-6.2-1.4
			c-4.3-0.7-8.6-1.2-13-1.4c-4.9-0.2-9.6,0-14.4,0.2l3.5-25.1c3.1-1,6-2.2,8.8-3.8C416.1,98.7,417.9,97,419.4,95.1L419.4,95.1z
			 M249.9,87.1v1.4l-0.1,6.9c-1.5,0-3.1-0.2-4.5-0.7c-1.1-0.4-1.9-1.2-2.4-2.3c-0.1-0.7,0.5-1,1.8-1.9S247.9,88.4,249.9,87.1
			L249.9,87.1z M407.4,84.2c0.1,0,0,0.2,0,0.7c-0.1,1-0.5,3.3-0.7,4.4s-0.2,1.2-0.6,1.4s-1.2,0.6-1.6,0.7s-0.4,0.2-0.2-0.3
			s0.5-1.5,1.1-2.7s1.3-2.7,1.7-3.6C407.3,84.5,407.4,84.2,407.4,84.2L407.4,84.2z M268.7,79.1c0.7,0.1,1.4,0.3,2,0.6
			c1.4,0.9,2.7,2,4,3.1c1.2,1,2.5,1.8,4,2.4c1.4,0.5,2.9,0.4,4.2-0.3c1.7-1,3.3-2.1,4.8-3.4c1.2-0.9,1.5-1,1.6-0.8s0,0.8-0.5,2.2
			s-1.7,3.6-2.5,5.3c-0.7,1.2-1.2,2.4-1.6,3.8c-0.2,0.9,0.1,1.4,0.7,1.4c0.9-0.2,1.6-0.7,2.1-1.4c0.7-1,1.4-2.3,2-3.1s1.2-0.8,1.5,0
			c0.3,1.1,0.4,2.3,0.3,3.4c0.1,0.8-0.2,1.6-0.8,2.1c-1,0.9-2.1,1.7-3.3,2.5c-1.1,0.8-2.3,1.5-3.6,1.9c-1.3,0.3-2.7,0.3-4-0.1
			c-1.2-0.4-2.3-0.9-3.4-1.6c-1.1-0.5-2.2-0.9-3.4-1c-0.9-0.1-1.8,0.1-2.5,0.6c-0.5,0.4-0.7,0.9-0.3,1.2s1.4,0.3,2.3,0.7
			c1,0.5,1.9,1.2,2.5,2.1c0.7,1.1,1.6,2.1,2.5,3c1,0.9,2.2,1.4,3.6,1.5c1.7-0.1,3.3-0.6,4.8-1.5c1.9-1.1,4.2-2.7,6-3.7
			c1.5-0.9,3.1-1.5,4.7-1.7c1.5-0.1,3-0.4,4.5-0.7c1.1-0.3,2-0.9,2.7-1.7c0.4-0.6,0.1-1-0.1-1.4s-0.3-0.8,0-1s0.8-0.1,2.3,0.3
			c2,0.6,4,1.1,6.1,1.4c1.9,0.2,3.8,0.1,5.8-0.1c0.8-0.1,1.6-0.1,2.3,0.1c0.2,0.1,0,0.3-1.2,1.1c-2.3,1.6-4.7,2.9-7.3,4
			c-4,1.8-9.9,4-15.2,5.8s-10.2,3.2-13.1,3.8s-3.8,0.6-6-0.3c-3.4-1.3-6.7-2.9-9.9-4.7c-3.9-2.3-8.2-5.2-10.3-6.6s-2.1-1.4-2-1.7
			c0.3-0.5,0.7-0.9,1.2-1.2c0.8-0.6,2-1.2,3.5-2.1c1.7-0.9,3.2-2.1,4.4-3.5c1.1-1.3,1.8-2.9,2.1-4.6c0.1-1.3,0.2-2.7,0.2-4
			c0-0.8,0.4-1.6,1.2-2c0.2-0.1,0.4-0.1,0.6-0.2C268.3,79.2,268.5,79.2,268.7,79.1L268.7,79.1z M411.2,76.9c0.2-0.1,0.4,0.2,0.9,0.9
			c0.5,0.9,1.4,2.5,1.9,3.5c0.4,0.6,0.6,1.3,0.6,2c0,0.4-0.2,0.8-0.8,1.5c-0.8,0.9-1.7,1.7-2.6,2.5c-0.6,0.5-1.3,0.9-2,1.3
			c-0.1,0-0.2,0.1-0.4,0.2c0.6-3,1.3-6,1.7-8s0.5-3.1,0.6-3.6C411.1,77.1,411.2,77,411.2,76.9L411.2,76.9z M414.7,76.2
			c0.8,0,2.3,0,3,0.1s0.6,0.3,0.3,1.1s-1,2.3-1.5,3s-0.6,0.6-1-0.2c-0.6-1-1.1-2-1.5-3c-0.3-0.8-0.2-0.9-0.2-0.9s0.1,0,0.8,0
			L414.7,76.2z M458.1,67.2l-4.1,46c-2,0.1-4,0.3-5.9,0.5c-1.8,0.3-3.5,0.7-5.3,1.2L458.1,67.2z M283.7,64.9L283.7,64.9
			c-0.2,0-0.3,0.1-0.5,0.1c-0.6,0.2-1.2,0.4-1.8,0.5c-0.6,0.1-1.3,0.1-1.9,0c-0.7-0.1-1.4-0.2-2.1-0.2c-0.4,0.1-0.7,0.3-0.7,0.5
			c0,0.3,0.1,0.6,0.3,0.9c0.1,0.2,0.3,0.3,0.4,0.4l0.1,0.1c0,0,0.1,0,0.6,0.1c0.8,0.1,1.6,0.2,2.5,0.2c0.8,0,1.6-0.1,2.4-0.3
			c0.4-0.1,0.8-0.4,1-0.8c0.1-0.4,0.1-0.8,0-1.1c0-0.1-0.1-0.3-0.3-0.3C283.8,64.9,283.7,64.9,283.7,64.9L283.7,64.9z M304.1,62.8
			c0.1,0,0.2,0,0.2,0c0.1,0,0.2,0.1,0.2,0.2c0.2,0.4,0.2,1-0.3,2.7s-1.5,4.4-2.2,6.4s-1.2,3.3-1.6,4.6c-0.3,1.2-0.5,2.4-0.5,3.6
			c0,0.7,0.2,1.5,0.5,2.1c0.5-1.3,1.2-2.5,1.9-3.6c0.6-0.8,1.2-1.1,1.5-0.8s0.2,0.9,0,1.6c-0.4,0.8-0.7,1.6-0.9,2.4
			c-0.3,1.1-0.2,2.3,0.1,3.3c0.4,0.8,1.1,1,2.1,0.4c2.1-1.3,3.4-3.6,3.5-6.1c0-0.6,0.2-1.3,0.5-1.8c0.2-0.3,0.6-0.6,0.9-0.8
			c0.4,2.2,0.5,4.4,0.5,6.6c-0.1,2-0.5,3.9-1.3,5.7c-0.4,1.1-1.4,1.9-2.6,2.1c-1,0.1-2.2-0.3-3.7-1.6c-1.9-1.6-3.4-3.5-4.5-5.8
			c-1-2.3-1.5-4.8-1.4-7.3c-0.1-2.1,0.4-4.2,1.4-6c1.2-2.4,2.7-4.6,4.3-6.7C303.5,63.3,303.9,63,304.1,62.8L304.1,62.8z M461.3,61.5
			l20.7,53c-2.9-0.4-5.8-0.8-9.9-1s-9.4-0.2-14.7-0.3L461.3,61.5z M277.3,59.5c-0.2,0-0.4,0.1-0.6,0.2c-0.5,0.3-1.1,0.6-1.6,1
			c-0.5,0.4-1,0.7-1.6,1c-0.5,0.2-1,0.3-1.5,0.3c-0.4,0-0.7,0.1-1.1,0.3c-0.1,0.1,0,0.4,0.1,0.7c0.1,0.2,0.2,0.4,0.4,0.6
			c0.1,0.1,0.1,0.1,1.1,0s3.2-0.2,4.9-0.2c1.5-0.1,2.9-0.1,4.4,0c1.3,0.1,2.7,0.3,4,0.4c1,0.1,1.9,0.1,2.9,0
			c0.6-0.2,0.9-0.3,0.9-0.5s-0.1-0.4-0.5-0.6s-1-0.3-1.5-0.5c-0.5-0.2-0.9-0.5-1.3-0.9c-0.5-0.5-1-0.9-1.7-1.2
			c-0.7-0.2-1.5-0.2-2.2,0c-0.6,0.2-0.9,0.3-1.2,0.5c-0.4,0.1-0.8,0.1-1.2,0.1c-0.5-0.2-1-0.4-1.5-0.7c-0.3-0.2-0.7-0.3-1-0.4
			C277.4,59.5,277.4,59.5,277.3,59.5L277.3,59.5z M252.4,54.8c0.2,0,0.3,0,0.5,0.1c0.3,0.2,0.5,0.6,0.9,1.6c0.6,1.6,1.4,3.1,2.3,4.5
			c1.3,2.1,3.3,4.9,4.5,6.6c0.8,1.1,1.4,2.4,1.5,3.7c0.2,1.7,0.2,3.3,0,5c-0.1,2.2-0.5,4.4-1.1,6.5c-0.5,1.5-1.2,2.8-2.3,4
			c-0.7,0.7-1.1,0.8-1.4,0.7s-0.2-0.3-0.1-0.8s0.5-1.5,0.7-2.5c0.3-1.2,0.4-2.3,0.3-3.5c-0.1-1.5-0.4-2.9-0.7-4.3
			c-0.3-1.6-0.5-3.2-0.6-4.3s-0.3-1.8-0.5-1.8s-0.5,0.7-0.6,2.2s-0.2,3.6-0.3,5c0,0.9-0.3,1.7-0.7,2.4c-0.3,0.3-0.6,0.3-0.7-0.7
			c-0.2-1.6-0.3-3.1-0.3-4.7c0-1.7,0.1-3.3,0-4.6c0-1.2-0.1-2.3-0.4-3.4c-0.2-0.8-0.4-1.3-0.6-1.3s-0.2,0.5-0.3,1.1
			c-0.1,0.8-0.3,1.6-0.8,2.2c-0.7,1-1.6,1.9-2.5,2.8c-0.8,0.7-1.1,1-1.4,0.8c-0.2-0.6-0.3-1.2-0.2-1.8c0.1-1.1,0.3-2.2,0.6-3.3
			c0.4-1.3,1-2.8,1.5-4.6s1-3.7,1.2-4.7c0.1-0.4,0.2-0.8,0.3-1.3c0.1-0.4,0.4-0.8,0.6-1.1C252,55,252.2,54.9,252.4,54.8L252.4,54.8z
			 M456.8,54.1c0.7,0,1.3,0.2,1.9,0.5c0.8,0.5,0.5,1.3-0.8,2.3c-2.2,1.5-4.5,2.8-7,3.8c-3.4,1.6-8,3.6-12.8,5.4s-9.7,3.4-13.8,4.5
			c-2.9,0.9-5.8,1.4-8.8,1.5c-1.6-0.1-1.8-0.7-0.9-1.5c1.1-0.8,2.3-1.5,3.6-2c0.9-0.4,0.9-0.4,4.8-2.2s11.5-5.5,17.4-7.9
			c4.2-1.9,8.5-3.3,12.9-4.2C454.4,54.1,455.6,54,456.8,54.1L456.8,54.1z M281.2,51.7c0.6,0,1.1,0.1,1.7,0.2c0.8,0.2,1,0.3,1.1,0.5
			c0.1,0.3,0.1,0.6-0.1,0.8c-0.1,0.2-0.6,0.2-1.9,0.3s-3.4,0.1-4.5,0.3s-1.4,0.3-1.5,0.4c-0.2,0.2-0.2,0.5-0.2,0.8
			c0,0.2,0.1,0.3,0.5,0.6c1,0.4,2,0.6,3,0.6c1.8,0.2,3.7,0.2,5.5-0.1c1.5-0.3,2.4-0.5,2.8-1c0.4-0.6,0.7-1.3,1-2
			c0.3-0.5,0.3-0.5,0.8-0.5c0.9,0.1,1.9,0.4,2.7,0.9c0.9,0.4,1.6,1,2.2,1.8c0.5,0.9,0.8,1.9,0.9,2.9c0.1,1.1,0,2.2-0.2,3.2
			c-0.2,1.2-0.6,2.4-1.1,3.5c-1,2.5-3.3,4.2-6,4.5c-1.8,0.4-4.5,0.7-6,0.9s-1.8,0.2-1.8,0.3c0,0.3,0.1,0.5,0.3,0.7
			c0.3,0.3,0.7,0.5,1.1,0.7c0.7,0.3,1.3,0.6,1.9,1c0.5,0.4,0.8,1,0.9,1.7c0.1,0.5-0.1,1.1-0.5,1.4c-0.8,0.5-1.8,0.7-2.8,0.7
			c-1.8,0.1-3.7-0.1-5.5-0.6c-1.6-0.5-3.2-1.2-4.6-2.2c-1.5-1.2-2.9-2.5-4.1-4c-1.6-1.9-3-4-4.2-6.3c-1.1-2.2-1.8-4.2-1.6-5.4
			c0.1-1.2,0.7-2.2,1.7-2.9c1.5-1,3.2-1.6,4.9-2c2-0.5,4.1-0.9,6.1-1.1c1.3-0.2,1.3-0.2,1.7-0.2s1-0.1,2.2-0.2s2.4-0.1,3-0.1
			S281,51.7,281.2,51.7L281.2,51.7z M280.8,40.8c1.7,0,3.3,0,4.8,0.1c4.5,0.1,9.1,0.7,13.5,1.7c3,0.8,5.9,1.7,8.8,2.9
			c-0.9-0.2-1.8-0.5-2.7-0.6c-1-0.2-2.1-0.2-3.2-0.1c-1.4,0.2-2.9,0.5-4.3,0.8c1.5,0,3,0.1,4.1,0.2c0.9,0,1.7,0.1,2.5,0.4
			c0.4,0.1,0.8,0.5,0.9,0.9c0,0.3-0.1,0.6-0.8,0.7c-1.1,0.1-2.2,0-3.3-0.1c-1.4-0.1-3-0.3-5-0.3s-4.2,0.2-6.4,0.3
			c2.1,0.3,4.3,0.6,6.7,0.9s5,0.8,6.5,1.1s1.7,0.5,1.7,0.8c0,0.5-0.1,0.9-0.3,1.4c-0.1,0.4-0.3,0.8-0.6,1.1
			c-0.2,0.2-0.5,0.3-1.7-0.2c-1.9-0.7-3.8-1.4-5.8-1.9c-2.8-0.6-5.7-1-8.5-1.2c-3-0.2-5.8-0.2-9.5-0.1s-8.2,0.3-12.2,0.9
			s-7.5,1.3-9.2,1.7s-1.7,0.4-1.9,0.1c-0.2-0.5-0.4-1-0.5-1.6c-0.1-0.6,0.1-1.1,0.6-1.5c0.9-0.6,1.9-1.1,3-1.4
			c1.5-0.5,3.4-1.2,5.4-1.8c-1-0.1-2.1,0-3.1,0.2c-1.6,0.3-4,0.8-5.6,1.1s-2.5,0.3-2.8,0s-0.1-0.8,0.9-1.3c1.8-0.7,3.7-1.1,5.6-1.3
			c2.5-0.3,5.5-0.6,8.4-0.8c-1.8-0.3-3.6-0.5-5.8-0.8s-4.9-0.5-7.6-0.8c3.4-0.4,6.8-0.7,12.5-1C270.1,40.9,275.7,40.8,280.8,40.8
			L280.8,40.8z M261.3,37.3c1.1,0,2.1,0.2,3.2,0.4c0.7,0.1,1.3,0.4,1.8,0.9c0.4,0.3,0.8,0.7,0.8,0.9s-0.4,0.3-1.3,0.3
			s-2.3-0.1-3.4-0.1s-2,0-2.6,0c-0.3,0-0.6,0-0.9-0.1c-0.1,0-0.1,0,0-0.4c0.1-0.6,0.3-1.1,0.6-1.5C259.9,37.3,260.4,37.2,261.3,37.3
			L261.3,37.3z M432.7,34c0.1,0,0.2,0,0.2,0c0.9,0.4,1.7,1.1,2.2,2c0.5,0.9,0.3,2-1.1,5.4s-3.9,9.3-5.8,13.3s-3.1,6-5,7.5
			s-4.5,2.4-6.5,3.4c-1.6,0.7-3,1.7-4.3,2.8c-1,0.9-1.6,1.7-3.4,5.8s-4.9,11.5-8,18.9c-2.4,0.6-4.9,1.2-9.8,2.4s-12.5,3-18.7,4
			c-5.1,0.8-10.2,1.3-15.4,1.3c-4.4,0.1-8.2,0.1-12,1c-3.7,1-7.2,2.6-10.3,4.9c-2.4,1.8-4.5,3.9-6.2,6.3c-0.2-1.9-0.1-3.7,0.1-5.6
			c0.4-2.2,1-4.3,1.9-6.3c0.8-2.2,2.2-4.1,4-5.6c1.8-1.4,4.2-2,8.5-2.6c5.7-0.8,11.5-1.3,17.3-1.6c6.8-0.2,14,0,18.8-0.3
			c3.2-0.2,6.4-0.7,9.6-1.5c2.5-0.6,5.1-1,6.8-1.5s2.2-0.9,2.5-1.3s0.2-0.7,0.5-1.4s0.9-1.8,3.7-5.6s7.8-10.1,12.1-15.8
			c3.9-5.1,7.6-10.3,11-15.8c2.2-3.7,4.1-7.4,5.9-11.3C431.9,34.6,432.2,34,432.7,34L432.7,34z M279.4,22.9c0.1,0,0.2,0.1,0.3,0.2
			c0.2,0.4,0.4,0.8,0.4,1.2c0.1,0.8,0.4,1.6,0.9,2.3c0.8,1,1.9,1.9,3,2.5c1.5,1,3.5,2.2,4.9,3.1c1,0.6,2,1.3,2.9,2.1
			c0.5,0.5,0.4,0.8,0.1,1.2c-0.6,0.4-1.4,0.7-2.1,0.8c-1.1,0.2-2.7,0.2-3.6,0.2s-1.1,0.1-1.3,0.4s-0.2,0.8-0.5,1.2s-0.6,0.6-1.6,0.7
			c-1.2,0.1-2.5,0.1-3.7,0c-0.9,0-1.9-0.1-2.8-0.3c-0.6-0.2-1.3-0.5-1.8-0.9c-1.2-0.6-2.5-1-3.8-1.3c-2-0.4-4-0.6-6.1-0.8
			c-1.6-0.1-2.3-0.2-2.7-0.2s-0.4-0.6-0.1-1.2c0.3-1,0.6-1.9,1.1-2.7c0.3-0.5,0.8-0.9,1.4-1c0.3-0.1,3-0.1,3-0.1l1.1-0.2
			c1.7-0.3,3.3-0.7,4.9-1.3c1.3-0.5,2.6-1.2,3.7-2.1c0.6-0.6,1.2-1.2,1.5-2c0.3-0.6,0.4-1.1,0.6-1.4S279.3,22.9,279.4,22.9
			L279.4,22.9z M450.8,20.9c0.5,0.2,0.8,0.5,1.1,0.9c0.3,0.6,0.5,1.2,0.4,1.9c-0.1,0.9-0.3,1.8-0.6,2.7c-0.3,1.1-0.7,2.2-1.2,3.3
			c-0.3,0.7-0.8,1.3-1.5,1.7c-0.5,0.3-1,0.5-1.6,0.5c-0.4,0-0.8-0.4-0.7-0.8c0.1-0.4,0.2-0.9,0.5-1.2l0.6-1c0.7-1.2,1.3-2.4,1.9-3.7
			c0.3-1,0.5-2.1,0.6-3.2C450.3,21.2,450.5,20.9,450.8,20.9L450.8,20.9z M436.2,17c0.1,0,0.2,0,0.4,0c0.5,0.2,0.7,0.8,1,2.1
			c0.3,1.5,0.5,2.9,0.6,4.4c0.1,0.9,0.1,1.7,0,2.6c-0.1,0.4-0.3,0.3-0.6-0.2s-0.8-1.6-1-2.1s-0.2-0.5-0.5-1.2s-0.8-2.1-1-3
			c-0.3-0.7-0.2-1.4,0.2-2C435.4,17.3,435.8,17,436.2,17L436.2,17z M445.2,16.6c0.5,0.1,0.9,0.3,1.3,0.6c0.7,0.6,1.1,1.4,1.4,2.2
			c0.3,1,0.3,2,0.2,3c-0.1,1-0.4,2-0.9,2.9c-0.4,0.7-0.8,1.4-1.3,2.1c-0.4,0.6-0.9,1-1,1.3s-0.2,0.2,0-0.6s0.5-2.6,0.7-4.1
			c0.2-1.2,0.2-2.4,0.1-3.6c-0.2-0.8-0.4-1.5-0.7-2.3c-0.2-0.6-0.2-1.2,0.1-1.4C445.1,16.6,445.2,16.6,445.2,16.6L445.2,16.6z
			 M440.4,16.5c0.3,0,0.7,0,1,0.2c0.7,0.3,1.2,1.1,1.4,2.8c0.1,2,0.1,3.9-0.1,5.9c0,1.1-0.2,2.3-0.6,3.3c-0.3,0.5-0.8,0.8-1.4,0.7
			c-0.4-0.1-0.6-0.4-0.8-0.9c-0.1-0.8-0.1-1.5,0-2.3c0.1-1.5,0-3-0.1-4.5c-0.1-1.6-0.5-3.2-0.6-4s-0.1-0.8,0.3-0.9
			C439.8,16.6,440,16.5,440.4,16.5L440.4,16.5z M279,4.3c2.2,0,4.4,0.2,6.6,0.6c3.9,0.7,7.4,2.6,10.2,5.4c2.3,2.1,4.1,3.9,5.1,4.9
			s1.2,1.3,1,1.4c-0.8-0.2-1.5-0.4-2.2-0.8c-1.3-0.6-3.2-1.6-4.7-2.2c-1.1-0.5-2.2-0.9-3.4-1.3c0.7,0.9,1.5,1.8,2.3,2.6
			c1,1.1,2.1,2.1,3.2,3.1c1.8,1.7,3.9,3.2,6.1,4.4c2.5,1.2,5,2.1,7.7,2.7c-0.5,0.1-1,0.2-1.5,0.2c-0.7,0-1.8-0.1-2.8-0.2
			c0.2,1,0.1,2.1-0.1,3.1c-0.3,1-1,1.8-1.9,2.3c-1,0.4-2.1,0.7-3.2,0.8c0.9-0.5,1.7-1.1,2.4-1.8c0.6-0.7,1.1-1.4,1.6-2.2
			c-1.2,0.8-2.5,1.3-3.9,1.7c-1.7,0.3-3.5,0.2-5.2-0.3c-2.3-0.6-4.5-1.4-6.6-2.6c-2-1-3.9-2.5-5.4-4.2c-1.4-1.7-2.5-3.6-3.3-5.6
			c-0.4-1-0.6-2-0.8-3.1c-0.2-0.6-0.5-0.9-0.7-0.9s-0.4,0.3-0.6,1.1c-0.2,1.2-0.6,2.4-1.1,3.5c-0.8,1.6-1.8,3.1-2.9,4.4
			c-1.1,1.3-2.4,2.4-3.9,3.3c-2,1-4.2,1.7-6.5,2c-3,0.5-7.2,0.9-11.3,1.3c0.4,0.5,1,0.9,1.7,1.1c1.3,0.3,2.6,0.6,3.9,0.7
			c-0.8,1.7-1.6,3.4-2.3,4.8c-0.5,1.2-1.3,2.2-2.3,3.1c-0.8,0.7-1.8,1.1-2.9,1.2c-0.7,0.1-1.5-0.1-2-0.6c-0.4-0.5-0.5-1.2-0.3-1.9
			c0.3-0.9,0.6-1.7,1-2.5c0.5-1.2,1-2.8,1.6-4.4c-0.3,0.6-0.6,1.3-1,1.8c-0.4,0.6-0.9,1-1.4,1.4c-0.5,0.3-1,0.5-1.6,0.5
			c-0.6,0-1.1-0.4-1.3-0.9c-0.4-0.9-0.4-1.9,0.1-2.7c1-1.6,2.3-3.1,3.8-4.4c2-1.9,4.7-4.2,7.5-6.6c-2.1,1.2-4.3,2.3-6.1,3.5
			s-3.3,2.6-4.3,3.3s-1.4,0.9-1.7,0.6s-0.6-0.9,0.5-2.3c1.8-1.9,3.6-3.6,5.6-5.2c2.1-1.7,4.1-3.6,6-5.6c2.2-2.3,4.8-5.4,9.9-7.2
			C271.5,4.8,275.3,4.3,279,4.3L279,4.3z M318.4,28.2c0-1.3-0.1-2.6-0.4-3.8c-0.3-1-1.2-1.9-2.2-2.2c-1.1-0.2-2.1-0.5-3.2-1
			c-1.2-0.7-2.2-1.8-2.8-3.1c-0.7-1.3-1.1-2.8-2.4-5.1c-1.6-3-4-5.6-6.8-7.5c-4.3-2.6-9-4.3-13.9-5c-1.9-0.3-3.9-0.5-5.8-0.5l-0.1,0
			c-3.1-0.1-6.2,0.2-9.3,0.8c-4.3,0.8-8.4,2.5-12,4.8c-2.7,1.9-5,4.2-6.7,7c-1.5,2.2-2.3,4.1-3.2,5.3c-0.8,1.1-1.9,2.1-3.1,2.8
			c-1.4,0.9-2.8,1.9-4,3c-0.8,0.8-1.3,1.9-1.4,3c-0.1,0.9,0,1.9,0.4,2.7c0.3,0.8,0.9,1.6,1.1,2.4c0.2,0.8,0.2,1.6,0.1,2.5
			c0,1,0.2,2,0.6,2.9c0.5,1.2,1.5,2.6,2.3,4c0.8,1.4,1.4,2.9,1.8,4.4c0.4,1.7,0.5,3.4,0.4,5.1c-0.1,2.1-0.4,4.2-0.8,6.3
			c-0.4,2-1,4-1.7,5.9c-0.8,1.9-1.7,3.7-2.7,5.5c-0.9,1.6-1.6,2.9-2,3.7s-0.5,1-0.2,1.6c0.5,1,1.1,1.9,1.8,2.7
			c1,1.1,2.3,2.4,3.2,3.3c0.6,0.5,1,1.2,1.4,1.9c0.1,0.4,0.1,0.7-0.4,1.3c-0.8,1-1.6,1.9-2.5,2.8c-1.3,1.4-3.1,3.3-4.1,4.3
			s-1.2,1.3-1.3,1.8c0,0.7,0.2,1.3,0.6,1.9c0.5,0.7,1.2,1.3,1.7,1.8c0.4,0.4,0.5,1,0.4,1.5c-0.1,0.4-0.5,0.6-1.8,1.3
			s-3.6,1.8-6.6,3.4c-3.4,1.7-6.7,3.7-9.8,5.9c-2.8,2.2-5.2,4.9-7,8c-1.8,3.2-3.1,6.5-4,10.1c-0.7,3.3-1.2,6.6-1.4,9.9
			c-0.3,3.4-0.6,7.2-1,10.9s-0.9,7.2-1.7,10.9s-1.8,7.5-3.1,11.8s-2.9,8.8-4.1,12c-1,2.6-2.2,5.1-3.6,7.4c-1.4,2.6-3.3,5.9-4.9,9.3
			c-1.6,3.4-2.9,7-4,10.6c-1.1,3.7-2.1,7.4-3,11.2s-1.5,7.4-2.5,11c-0.8,3.1-1.8,6.1-2.9,9.1c-0.8,1.9-1.2,2.3-1.5,2.4
			s-0.6-0.1-1-1.3c-0.6-1.9-1-3.8-1.4-5.8c-0.3-1.6-0.5-3.3-0.6-5c-0.2-0.9,0.1-1.9,0.7-2.6c0.9-0.7,1.7-1.5,2.5-2.3
			c1-1.2,1.4-2.8,1.2-4.4c-0.5-1.9-1.6-3.5-3.2-4.6c-1.7-1.1-3.7-1.7-5.7-1.8c-2-0.1-4.1,0.2-5.9,1.1c-1.8,0.9-3.3,2.1-4.4,3.7
			c-1.1,1.4-1.8,3-2.1,4.7c-0.2,1.5,0.3,2.9,1.4,4c1.2,0.9,2.5,1.7,3.8,2.2c1,0.5,1.9,1.1,2.8,1.9c0.9,0.9,1.6,2,2,3.2
			c0.5,1.6,0.9,3.8,1.5,6.3s1.6,5.4,2,7.1s0.5,2.3-0.2,3.3s-2.1,2.4-3.2,3.9c-1.1,1.4-1.9,3-2.4,4.8c-0.4,1.7-0.5,3.4-0.2,5
			c0.3,2.1,1.1,4.1,2.2,5.9c1.5,2.4,3.9,5.3,5.1,6.9s1.3,2,0.3,2.3s-3.1,0.7-5.5,1.2s-5.1,1.2-7.1,1.8s-3.4,1-4.4,0.8
			c-0.9-0.3-1.6-0.8-2.2-1.5c-0.6-0.6-1.3-0.9-1.9-0.6c-0.9,0.5-1.4,1.5-1.2,2.5c0.2,1.6,0.7,3.1,1.4,4.6c0.6,1.2,1.1,2.5,1.5,3.9
			c0.4,1.3,0.6,2.6,0.9,3.5s0.8,1.1,1.3,1.2c0.6,0.1,1.2-0.3,1.4-0.8c0.3-0.6,0.3-1.6,0.8-2.6c0.7-1.1,1.6-1.9,2.8-2.4
			c1.9-0.7,4-1,6-1c3-0.2,7.4-0.2,11.9-0.2c0.4,1.9,0.9,3.9,1.6,6.7s1.7,6.5,3.3,11.7s3.9,11.8,6.2,19s4.6,14.7,6.8,21.9
			s4.3,13.8,6.3,20.3s4.2,13,6,19.2s3.5,12.2,5.3,18s3.5,11.4,5.5,17.9s4.1,13.9,6.3,19.6c1.8,4.8,4.3,9.3,7.4,13.5
			c1.3,1.8,2.6,3.4,4,5.1h-48.8v11.3h-15.2c-0.3-1.6-0.7-3.1-1.3-4.6c-1.4-3.8-4-7.1-7.3-9.5c-3.4-2.7-8-5-12.5-7.4
			c-0.8,2.6-1.3,5.2-1.5,7.9c-0.4,4,0.1,8.1,1.4,11.9c1.5,3.9,4.4,6.9,8.1,9.6c1.4,1.1,3,2.1,4.7,3.1c-5.7-1.1-11.3-2.6-16.8-4.6
			c-1.4-0.5-2.9-1.1-4.5-1.6c0.5-1.6,1-3.3,1.3-5c0.7-4.1,0.8-8.2,0.3-12.4c-0.7-4-2.5-7.8-5.3-10.8c-3.3-3.5-7-6.7-10.8-9.6
			c-1.3,2.4-2.3,4.9-3,7.5c-1.1,3.9-1.5,8-0.9,12c0.7,4.1,3,7.6,6.1,11c1.3,1.4,2.6,2.6,4,3.9c-5.9-2.6-12.3-5.8-19-9.5
			c0.7-1.3,1.3-2.7,1.8-4.1c1.4-3.9,2.2-8,2.4-12.1c0-4.1-1.2-8.1-3.4-11.5c-2.3-3.7-5.7-7.5-9-11.3c-1.6,2.1-3,4.4-4.2,6.9
			c-1.8,3.6-2.8,7.6-3,11.6c0,4.1,1.6,8,4.2,11.9c0.8,1.1,1.6,2.3,2.5,3.5c-5.5-3.4-10.8-7.2-15.8-11.2c0.9-1.2,1.7-2.4,2.5-3.7
			c2.1-3.6,3.7-7.4,4.6-11.5c0.7-4,0.3-8.2-1.3-11.9c-1.6-4.1-4.2-8.4-6.8-12.8c-2,1.8-3.8,3.8-5.4,6c-2,2.8-4.3,6.8-5,10.9
			s0.1,8.2,1.9,12.5c0.6,1.4,1.3,2.9,2.1,4.4c-3.1-2.8-6.2-5.8-9.2-9c-1.6-1.7-3.1-3.4-4.6-5.2c0.6-0.5,1.2-1.1,1.9-1.8
			c2.9-3,5.3-6.4,7.2-10.1c1.7-3.7,2.2-7.8,1.6-11.9c-0.5-4.3-2.1-9.2-3.6-14.1c-2.3,1.2-4.4,2.7-6.3,4.5c-2.8,2.6-5,5.7-6.6,9.1
			c-1.7,4-2.4,8.5-2,12.9c0,0.5,0.1,1.1,0.2,1.7c-3.3-4.6-6.4-9.3-9.1-14c0.7-0.4,1.5-0.9,2.3-1.5c3.4-2.3,6.5-5.2,9-8.5
			c2.4-3.3,3.7-7.3,3.9-11.3c0.1-4.8-0.1-9.7-0.8-14.5c-2.6,0.8-5,1.9-7.2,3.4c-3.3,2.3-6.3,5.2-8.7,8.5c-2.4,3.3-3.8,7.3-4,11.4
			c-0.1,0.8-0.1,1.5-0.1,2.3c-0.7-1.4-1.4-2.7-2-4.1c-2.1-4.3-3.8-8.3-5.2-12.1c0.7-0.2,1.4-0.4,2.2-0.7c3.8-1.3,7.3-3.3,10.5-5.7
			c3-2.5,5.3-5.9,6.5-9.6c1.3-4.5,2.3-9.1,2.9-13.8c-2.5,0-5,0.5-7.3,1.3c-3.4,1.3-6.5,3.1-9.3,5.5c-3.3,2.7-5.9,6.1-7.5,10
			c-0.4,1-0.8,2.1-1.1,3.2c-1.1-4.3-2-8.6-2.6-13c-0.2-1.3-0.3-2.6-0.5-3.9c1.1-0.1,2.2-0.2,3.4-0.4c3.8-0.6,7.4-1.8,10.8-3.6
			c3.3-1.9,6-4.7,7.7-8.1c2-4.1,3.7-8.4,5.1-12.7c-2.4-0.4-4.8-0.4-7.2,0c-3.6,0.8-7,2.1-10.2,3.9c-3.4,1.9-6.2,4.6-8.2,7.9
			c-0.8,1.3-1.5,2.7-2.1,4.1c-0.3-6.2-0.3-12.4,0.2-18.6c1.5,0.1,3,0.1,4.5,0.1c3.8-0.2,7.6-1,11.1-2.4c3.5-1.5,6.5-4.1,8.5-7.2
			c2.5-3.9,4.6-7.9,6.4-12.1c-2.3-0.7-4.8-0.9-7.2-0.7c-3.7,0.4-7.2,1.3-10.6,2.8c-3.6,1.5-6.7,3.9-9,7c-1.2,1.6-2.2,3.2-3.1,4.9
			c0.8-6.9,2.3-13.8,4.4-20.5c1.3,0.4,2.5,0.6,3.8,0.8c3.8,0.6,7.6,0.6,11.4,0c3.7-0.8,7.2-2.6,9.9-5.3c3.2-3.3,6.2-6.8,8.8-10.5
			c-2.1-1.1-4.5-1.9-6.9-2.2c-3.7-0.4-7.3-0.2-10.9,0.5c-3.7,0.7-7.2,2.4-10.1,4.9c-0.9,0.8-1.8,1.6-2.6,2.5
			c2.4-6,5.1-11.8,8.2-17.5c1.3,0.6,2.6,1.1,4,1.5c3.5,1.1,7.1,1.5,10.7,1.4c3.6-0.2,7.1-1.5,10-3.7c3.5-2.7,6.7-5.6,9.7-8.8
			c-1.9-1.4-4-2.4-6.2-3c-3.4-0.8-6.9-1.2-10.4-0.9c-3.7,0.2-7.2,1.4-10.3,3.4c-1.2,0.8-2.3,1.6-3.4,2.6c3.4-6,7.3-11.7,11.5-17.2
			c1.4,0.9,2.8,1.7,4.4,2.4c3.3,1.5,6.8,2.5,10.4,2.9c3.6,0.2,7.2-0.6,10.4-2.3c3.8-2.2,7.4-4.6,10.8-7.3c-1.7-1.6-3.6-2.9-5.7-3.8
			c-3.2-1.3-6.7-2.1-10.2-2.3c-3.6-0.3-7.3,0.4-10.6,1.9c-1.4,0.7-2.8,1.5-4.1,2.3c4.8-5.2,10-10.2,15.4-14.8c1.2,1,2.6,1.9,3.9,2.7
			c3.1,1.8,6.4,3.1,9.9,3.9c3.5,0.7,7.2,0.4,10.6-0.8c4-1.5,7.9-3.3,11.7-5.4c-1.5-1.7-3.2-3.1-5.2-4.2c-3.1-1.6-6.3-2.7-9.7-3.4
			c-3.6-0.7-7.3-0.6-10.8,0.4c-1.5,0.5-3.1,1-4.5,1.7c5.8-4.7,11.8-9,18.1-13l0,0c2.1,1.9,4.3,3.6,6.7,5.2c2.6,1.8,5.6,3.1,8.7,3.8
			c3.6,0.7,7.3,0.6,10.9-0.1c3.1-0.8,6.2-1.9,9-3.5c-2-2.2-4.3-4.3-6.8-6c-3.1-2.2-6.6-3.7-10.2-4.6c-3.2-0.5-6.4-0.2-9.5,0.9
			c-1,0.3-2,0.6-3,1l0.3-0.2c1.2-0.6,2.4-1.4,3.5-2.1c6.2-3.3,12.1-6,17-8l0.7-0.3l-0.1,0.3c1.7,2.1,3.5,4.1,5.5,6
			c2.2,2.2,4.8,3.9,7.7,5.1c3.3,1.2,6.9,1.8,10.4,1.7c3.1-0.2,6.2-0.8,9.1-1.8c-1.6-2.5-3.4-4.7-5.5-6.8c-2.6-2.5-5.6-4.6-9-6
			c-2.9-1-6.1-1.3-9.1-0.7c-2.1,0.3-4.1,0.6-6.2,1.1c6.3-2.6,10.8-4.2,13.7-5.2c1.4,0.1,2.9,0.3,5,0.6c2.8,0.5,5.6,0.8,8.5,0.8
			c3.2-0.2,6.3-1,9.2-2.5c2.6-1.5,5-3.4,7.2-5.5c-2.7-1-5.5-1.7-8.3-2.1c-2.7-0.3-5.5-0.2-8.2,0.3c-2.2,0.5-4.3,1.5-6.1,2.8
			c-2.1,1.4-4.7,3.4-7.4,5.4c-2.4,0.7-6,1.7-11,3.4c1.5-1,3-2,4.4-3.2c2.4-1.8,4.3-4.1,5.8-6.7c1.6-3,2.5-6.3,2.8-9.6
			c0.1-2.9-0.2-5.9-0.8-8.8c-2.6,1.2-5,2.7-7.2,4.4c-2.8,2.1-5.1,4.8-6.9,7.8c-1.3,2.6-1.9,5.6-1.7,8.5c0,2.8,0.4,5.7,0.7,8.5
			c-1.2,0.4-2.4,0.8-3.7,1.3c-3.9,1.4-8.4,3.2-13.2,5.3c1-2,1.6-4.2,1.8-6.4c0.3-2.8,0.2-5.7-0.5-8.5c-0.7-3.2-2-7.1-3.4-11
			c-2.7,2.7-5.3,5.6-7.8,8.6c-2.2,2.6-3.7,5.8-4.3,9.2c-0.4,3.7-0.3,7.4,0.4,11c0.2,1.5,0.5,2.6,0.7,3.6c-5.1,2.8-10.1,6-14.8,9.3
			c0.8-2.4,1.1-4.9,1-7.4c-0.1-2.9-0.8-5.7-1.9-8.3c-1.3-3.1-3.2-6.7-5.2-10.4c-2.3,3.1-4.4,6.4-6.3,9.8c-1.8,3-2.7,6.4-2.8,9.8
			c0.2,3.7,0.9,7.3,2.2,10.8c0.6,1.8,1.1,3,1.6,4.2c-3.8,3-7.6,6.3-11.3,9.8c0.1-2.2-0.1-4.4-0.7-6.5c-0.7-2.8-1.9-5.4-3.6-7.7
			c-1.9-2.7-4.5-5.9-7.2-9c-1.5,3.6-2.9,7.2-4.1,10.9c-1.1,3.3-1.3,6.8-0.7,10.2c1,3.6,2.4,7,4.4,10.1c0.6,1.1,1.2,1.9,1.7,2.7
			c-3.6,4.2-6.8,8.7-9.8,13.4c-0.1-2.8-0.8-5.5-1.9-8c-1.1-2.6-2.7-5-4.7-7.1c-2.2-2.4-5.4-5.1-8.5-7.9c-1,3.7-1.8,7.5-2.4,11.4
			c-0.6,3.4-0.3,6.9,0.8,10.2c1.5,3.4,3.4,6.5,5.8,9.4c1.1,1.4,2.4,2.8,3.7,4c-2.4,4.4-4.7,8.9-6.7,13.5c-0.1-0.3-0.2-0.6-0.3-1
			c-0.9-2.9-2.4-5.6-4.3-8c-1.8-2.2-4-4.1-6.5-5.5c-2.8-1.7-6.6-3.5-10.3-5.3c0.1,3.9,0.3,7.7,0.8,11.6c0.4,3.4,1.6,6.7,3.6,9.5
			c2.3,2.9,5.1,5.3,8.2,7.4c1.4,1,2.8,1.9,4.3,2.6c-0.2,0.7-0.5,1.4-0.7,2.1c-1.5,4.7-2.7,9.5-3.6,14.3c-0.3-0.6-0.5-1.2-0.8-1.7
			c-1.4-2.7-3.4-5.1-5.7-7.1c-2.2-1.9-4.7-3.3-7.4-4.3c-3.1-1.2-7.1-2.3-11.1-3.3c0.7,3.8,1.7,7.5,2.9,11.2c1.1,3.3,3,6.2,5.5,8.6
			c3,2.6,6.2,5,9.6,7.1c1.9,1.2,3.6,2.4,5.1,3.3c-0.1,0.8-0.1,1.5-0.2,2.3c-0.3,4.4-0.5,8.9-0.4,13.5c-0.8-1.1-1.6-2.2-2.4-3.1
			c-2-2.5-4.4-4.6-7.1-6.3c-2.4-1.5-5.1-2.6-7.9-3.1c-3.2-0.7-7.3-1.1-11.4-1.6c1.3,3.6,2.8,7.2,4.6,10.6c1.6,3,3.8,5.6,6.4,7.8
			c3,2.5,6.4,4.5,10,6c2.8,1.2,5.6,2.3,8.6,3c0.2,1.9,0.4,3.8,0.7,5.7c0.4,2.6,0.8,5.2,1.4,7.9c-1-0.9-2.1-1.8-3.2-2.6
			c-2.5-2-5.4-3.7-8.4-5c-2.7-1.1-5.5-1.7-8.3-1.7c-3.3-0.1-7.4,0.1-11.6,0.4c1.9,3.4,4,6.6,6.4,9.7c2.1,2.7,4.7,4.9,7.7,6.6
			c3.4,1.9,7.1,3.4,10.9,4.3c3.3,0.9,6.7,1.4,10.1,1.6c0.2,0.7,0.5,1.4,0.7,2.1c0,0.1,0,0.2-0.1,0.4s0.1,0,0.2,0c1.4,3.8,3,7.8,5,12
			c-1.6-1.1-3.4-2.2-5.1-3.1c-2.8-1.6-5.8-2.9-9-3.7c-2.8-0.7-5.7-0.8-8.5-0.4c-3.3,0.4-7.3,1.3-11.4,2.2c2.4,3,5,5.9,7.8,8.5
			c2.5,2.3,5.4,4.1,8.6,5.3c3.6,1.3,7.4,2.2,11.2,2.5c4.1,0.5,8.6,0.5,11-0.2c0.3-0.1,0.7-0.2,1-0.4c0.9,1.5,1.7,3.1,2.7,4.6
			c0,0.1,0,0.1,0,0.2c0,0,0,0,0.1,0c2.1,3.5,4.3,7,6.7,10.5c-2.2-1.1-4.7-2.2-6.9-3c-3-1.2-6.2-2-9.5-2.3c-2.9-0.3-5.7,0-8.5,0.8
			c-3.2,0.8-7.1,2.3-10.9,3.8c2.8,2.6,5.7,5,8.9,7.2c2.8,1.9,6,3.3,9.3,4c3.7,0.8,7.6,1.1,11.4,0.9c4.2-0.1,8.6-0.8,11.2-1.8
			c0.5-0.2,1-0.5,1.5-0.8c1.3,1.6,2.5,3.2,3.9,4.8l0.1,0.4c0,0,0.1-0.1,0.1-0.1c1.6,1.9,3.2,3.7,4.8,5.5c1,1,1.9,2,2.9,3
			c-2.2-0.7-4.6-1.4-6.7-1.9c-3.2-0.8-6.5-1.1-9.7-1c-2.9,0.1-5.7,0.8-8.3,2c-3,1.3-6.7,3.2-10.3,5.2c3.1,2.3,6.4,4.3,9.8,6.1
			c3.1,1.5,6.4,2.5,9.8,2.7c3.8,0.3,7.7,0.1,11.4-0.6c3.8-0.6,7.5-1.7,11.1-3.3c0.6-0.3,1.1-0.6,1.7-1c5.4,4.6,11,8.9,16.9,12.8
			c-3.2-0.5-6.8-1.1-9.8-1.4c-3.3-0.4-6.5-0.3-9.8,0.3c-2.8,0.5-5.5,1.6-7.9,3.1c-2.8,1.7-6.2,4.1-9.5,6.5c3.4,1.8,6.9,3.4,10.6,4.7
			c3.2,1.1,6.6,1.6,10,1.4c3.8-0.2,7.6-0.9,11.3-2.1c3.8-1.2,7.5-2.8,11-4.9c1-0.6,2-1.3,2.9-2.1c0.9,0.5,1.8,1.1,2.7,1.6
			c5.1,2.9,10,5.5,14.7,7.8c-2.7,0-5.4,0.1-7.9,0.3c-3.3,0.2-6.5,0.8-9.6,1.9c-2.7,1-5.2,2.5-7.3,4.3c-2.5,2.1-5.4,5.1-8.3,8
			c3.7,1.2,7.4,2.2,11.2,2.9c3.4,0.5,6.8,0.4,10.1-0.3c3.7-0.9,7.3-2.2,10.7-4c3.6-1.8,7-4,10.1-6.6c0.6-0.5,1.2-1.1,1.7-1.6
			c3.5,1.5,6.9,2.8,9.9,3.8c6.8,2.4,13.9,4.2,21,5.4l0.7,0.1v21.3H407v-22.5c5.3-1.1,10.5-2.6,15.6-4.4c3.1-1.1,6.4-2.4,9.9-3.8
			c0.5,0.5,1.1,1.1,1.7,1.6c3.1,2.6,6.5,4.8,10.1,6.6c3.4,1.8,7,3.1,10.7,4c3.3,0.7,6.7,0.8,10.1,0.3c3.8-0.7,7.5-1.7,11.2-2.9
			c-2.9-3-5.8-5.9-8.3-8c-2.2-1.9-4.6-3.4-7.3-4.3c-3.1-1.1-6.3-1.7-9.6-1.9c-2.4-0.2-5.2-0.2-7.9-0.3c4.7-2.3,9.6-4.9,14.7-7.8
			c0.9-0.5,1.8-1.1,2.7-1.6c0.9,0.8,1.9,1.5,2.9,2.1c3.5,2,7.2,3.7,11,4.9c3.6,1.2,7.4,1.9,11.3,2.2c3.4,0.2,6.8-0.3,10-1.4
			c3.6-1.3,7.2-2.9,10.6-4.7c-3.3-2.4-6.7-4.9-9.5-6.5c-2.4-1.5-5.1-2.5-7.9-3.1c-3.2-0.5-6.5-0.6-9.8-0.3c-3.1,0.3-6.6,0.9-9.8,1.4
			c5.9-3.9,11.6-8.2,16.9-12.8c0.5,0.4,1.1,0.7,1.7,1c7.1,3,14.8,4.3,22.5,3.9c3.4-0.3,6.7-1.2,9.7-2.7c3.4-1.8,6.7-3.8,9.8-6.1
			c-3.6-2-7.3-3.9-10.3-5.2c-2.6-1.2-5.4-1.8-8.3-2c-3.3-0.1-6.5,0.2-9.7,1c-2.1,0.5-4.5,1.2-6.7,1.9c1-1,1.9-2,2.9-3
			c1.7-1.8,3.3-3.6,4.9-5.5c0,0,0.1,0.1,0.1,0.1c0-0.1,0.1-0.3,0.1-0.4c1.3-1.6,2.6-3.2,3.8-4.8c0.5,0.3,1,0.5,1.5,0.8
			c2.6,1,7.1,1.6,11.2,1.8c3.8,0.2,7.7-0.1,11.4-0.9c3.3-0.7,6.5-2.1,9.3-4c3.1-2.2,6.1-4.7,8.9-7.4c-3.9-1.5-7.8-2.9-11-3.8
			c-2.7-0.8-5.6-1.1-8.5-0.8c-3.3,0.3-6.4,1.1-9.5,2.4c-2.2,0.8-4.7,1.9-6.9,3c2.4-3.5,4.6-7,6.7-10.5c0,0,0,0,0.1,0
			c0-0.1,0-0.1,0-0.2c0.9-1.6,1.8-3.1,2.7-4.7c0.3,0.2,0.7,0.3,1,0.4c2.3,0.7,6.8,0.7,11,0.2c3.8-0.4,7.6-1.2,11.2-2.6
			c3.2-1.2,6.1-3,8.6-5.3c2.8-2.7,5.4-5.5,7.8-8.5c-4-0.9-8.1-1.8-11.3-2.2c-2.8-0.4-5.7-0.3-8.5,0.4c-3.2,0.8-6.2,2-9,3.7
			c-1.7,0.9-3.4,2-5,3.1c2-4.2,3.6-8.2,5-12c0.1,0,0.1,0,0.2,0c0-0.1,0-0.2,0-0.3c0.3-0.7,0.5-1.4,0.7-2.1c3.4-0.2,6.8-0.7,10.1-1.6
			c3.8-0.9,7.5-2.4,10.9-4.3c2.9-1.7,5.6-3.9,7.7-6.6c2.3-3.1,4.5-6.3,6.3-9.7c-4.1-0.3-8.3-0.5-11.5-0.4c-2.9,0.1-5.7,0.6-8.3,1.7
			c-3,1.3-5.8,3-8.4,5c-1,0.8-2.1,1.7-3.2,2.6c0.5-2.6,1-5.3,1.4-7.9c0.3-1.9,0.5-3.8,0.7-5.7c2.9-0.7,5.8-1.8,8.6-3
			c3.6-1.6,7-3.6,10-6c2.6-2.2,4.8-4.8,6.5-7.8c1.8-3.4,3.3-7,4.6-10.6c-4.1,0.4-8.2,0.9-11.5,1.6c-2.8,0.5-5.5,1.6-7.9,3.1
			c-2.7,1.7-5.1,3.8-7.1,6.3c-0.8,1-1.6,2.1-2.4,3.2c0-4.6-0.1-9.1-0.4-13.5c0-0.8-0.1-1.5-0.2-2.3c1.5-0.9,3.2-2,5.1-3.3
			c3.4-2.1,6.6-4.5,9.6-7.1c2.5-2.4,4.4-5.3,5.5-8.6c1.2-3.6,2.2-7.3,3-11.1c-4,1.1-8,2.2-11.1,3.3c-2.7,1-5.2,2.4-7.4,4.3
			c-2.3,2-4.3,4.4-5.7,7.1c-0.3,0.6-0.6,1.1-0.8,1.7c-0.9-4.9-2.1-9.6-3.6-14.4c-0.2-0.7-0.5-1.4-0.7-2.1c1.5-0.8,3-1.7,4.3-2.6
			c3.1-2,5.8-4.5,8.2-7.4c2-2.8,3.3-6.1,3.6-9.5c0.5-3.8,0.7-7.7,0.8-11.6c-3.7,1.8-7.5,3.5-10.3,5.3c-2.5,1.4-4.7,3.3-6.5,5.5
			c-1.9,2.4-3.4,5.1-4.3,8c-0.1,0.3-0.2,0.6-0.3,1c-2-4.6-4.3-9.1-6.7-13.5c1.4-1.2,2.6-2.6,3.7-4c2.4-2.8,4.4-6,5.8-9.4
			c1.2-3.3,1.5-6.8,0.8-10.2c-0.6-3.8-1.4-7.6-2.4-11.4c-3.1,2.7-6.2,5.5-8.5,7.9c-3.9,4-6.3,9.4-6.6,15c-3-4.7-6.3-9.1-9.8-13.4
			c0.5-0.8,1.1-1.6,1.7-2.7c1.9-3.1,3.4-6.6,4.4-10.1c0.7-3.4,0.5-6.9-0.6-10.2c-1.2-3.7-2.5-7.3-4-10.9c-2.7,3.2-5.4,6.3-7.2,9
			c-1.7,2.3-2.9,4.9-3.6,7.7c-0.6,2.1-0.8,4.3-0.7,6.5c-3.7-3.5-7.5-6.8-11.3-9.8c0.5-1.1,1-2.4,1.6-4.2c1.3-3.5,2-7.1,2.2-10.8
			c0-3.5-1-6.8-2.8-9.8c-1.9-3.4-4-6.6-6.3-9.8c-2,3.6-3.9,7.3-5.1,10.4c-1.1,2.6-1.8,5.4-1.9,8.3c-0.1,2.5,0.2,5,1,7.4
			c-4.8-3.4-9.7-6.5-14.9-9.3c0.3-1,0.5-2.2,0.7-3.6c0.7-3.6,0.8-7.3,0.4-11c-0.6-3.4-2.1-6.6-4.4-9.2c-2.4-3-5-5.9-7.8-8.6
			c-1.3,3.9-2.6,7.8-3.4,11c-0.7,2.8-0.9,5.6-0.5,8.5c0.2,2.2,0.8,4.4,1.8,6.4c-4.8-2.1-9.4-3.9-13.2-5.3l-3.7-1.3
			c0.3-2.9,0.6-5.7,0.7-8.5c0.2-2.9-0.4-5.9-1.7-8.5c-1.8-3-4.1-5.7-6.9-7.8c-2.2-1.7-4.7-3.2-7.2-4.4c-0.7,2.9-0.9,5.8-0.8,8.8
			c0.3,3.4,1.2,6.6,2.7,9.6c1.5,2.6,3.4,4.9,5.8,6.7c1.4,1.1,2.9,2.2,4.4,3.2c-5-1.7-8.6-2.8-11-3.4c-2.6-2-5.3-4-7.4-5.4
			c-1.8-1.3-3.9-2.3-6.1-2.8c-2.7-0.5-5.5-0.7-8.2-0.3c-2.8,0.4-5.6,1.2-8.3,2.1c2.2,2.1,4.6,4,7.2,5.5c2.8,1.5,6,2.3,9.2,2.5
			c2.8,0,5.7-0.2,8.5-0.8c2.1-0.3,3.6-0.5,5-0.6c2.8,1,7.4,2.6,13.7,5.2c-2.1-0.4-4.1-0.8-6.2-1.1c-3.1-0.5-6.2-0.3-9.1,0.7
			c-3.4,1.4-6.4,3.5-9,6c-2.1,2.1-3.9,4.3-5.5,6.8c2.9,1,6,1.6,9.1,1.8c3.5,0.2,7.1-0.4,10.4-1.5c2.9-1.2,5.5-2.9,7.7-5.1
			c1.9-1.9,3.8-3.9,5.5-6l-0.1-0.3l0.7,0.3c4.9,2.1,10.8,4.7,17,8c1.1,0.8,2.3,1.5,3.5,2.1l0.3,0.2c-1-0.4-2-0.7-3-1
			c-3-1.1-6.3-1.4-9.5-0.9c-3.7,0.9-7.1,2.4-10.2,4.6c-2.5,1.7-4.7,3.8-6.8,6c2.8,1.5,5.9,2.7,9,3.5c3.6,0.8,7.3,0.8,10.9,0.1
			c3.1-0.7,6.1-2,8.7-3.8c2.3-1.6,4.6-3.3,6.7-5.2l0,0c6.3,4,12.4,8.3,18.2,13c-1.5-0.7-3-1.2-4.6-1.7c-3.5-1-7.2-1.2-10.8-0.4
			c-3.4,0.6-6.7,1.8-9.7,3.4c-2,1.1-3.7,2.5-5.2,4.2c3.7,2.1,7.6,3.9,11.7,5.3c3.4,1.2,7.1,1.5,10.6,0.8c3.5-0.8,6.8-2.1,9.9-3.9
			c1.4-0.8,2.7-1.7,4-2.7c5.4,4.6,10.6,9.6,15.4,14.8c-1.3-0.9-2.7-1.7-4.1-2.4c-3.3-1.6-7-2.2-10.6-1.9c-3.5,0.2-6.9,1-10.1,2.3
			c-2.1,0.9-4.1,2.2-5.7,3.8c3.4,2.7,7,5.2,10.7,7.4c3.2,1.8,6.8,2.6,10.4,2.3c3.6-0.4,7.1-1.4,10.4-2.9c1.5-0.7,3-1.5,4.4-2.4
			c4.3,5.4,8.1,11.2,11.5,17.2c-1.1-0.9-2.2-1.8-3.4-2.6c-3.1-2-6.6-3.1-10.3-3.4c-3.5-0.2-7,0.1-10.4,0.9c-2.2,0.6-4.3,1.6-6.2,3
			c3,3.2,6.2,6.1,9.6,8.8c2.9,2.2,6.4,3.5,10,3.7c3.6,0.1,7.2-0.4,10.7-1.5c1.4-0.4,2.7-0.9,4-1.5c3,5.7,5.8,11.5,8.2,17.5
			c-0.8-0.9-1.7-1.7-2.6-2.5c-2.9-2.5-6.4-4.3-10.2-5c-3.6-0.8-7.3-0.9-11-0.5c-2.4,0.3-4.7,1.1-6.9,2.2c2.6,3.7,5.6,7.3,8.8,10.5
			c2.7,2.7,6.1,4.5,9.9,5.3c3.8,0.6,7.6,0.6,11.4,0c1.3-0.2,2.6-0.5,3.8-0.8c2.1,6.7,3.5,13.5,4.4,20.5c-0.9-1.7-1.9-3.4-3.1-4.9
			c-2.3-3.1-5.4-5.5-8.9-7c-3.4-1.5-6.9-2.4-10.6-2.8c-2.4-0.2-4.9,0.1-7.2,0.7c1.8,4.2,4,8.3,6.4,12.1c2.1,3.2,5.1,5.7,8.5,7.2
			c3.5,1.4,7.3,2.2,11,2.4c1.5,0.1,3,0.1,4.5-0.1c0.4,6.2,0.5,12.4,0.2,18.6c-0.6-1.4-1.3-2.8-2.1-4.1c-2-3.3-4.8-6-8.1-7.9
			c-3.2-1.8-6.6-3.2-10.2-3.9c-2.4-0.4-4.9-0.4-7.3,0c1.3,4.4,3,8.6,5.1,12.7c1.7,3.4,4.4,6.2,7.7,8.1c3.4,1.8,7,3,10.8,3.6
			c1.1,0.2,2.2,0.3,3.4,0.4c-0.2,1.3-0.3,2.6-0.5,3.9c-0.6,4.4-1.5,8.7-2.6,13c-0.3-1.1-0.7-2.1-1.1-3.2c-1.7-3.9-4.3-7.3-7.5-10
			c-2.8-2.3-5.9-4.2-9.3-5.5c-2.4-0.8-4.8-1.2-7.3-1.3c0.6,4.7,1.5,9.3,2.9,13.8c1.2,3.8,3.4,7.1,6.5,9.6c3.2,2.4,6.7,4.4,10.5,5.7
			c0.8,0.3,1.5,0.5,2.2,0.7c-1.4,3.8-3.1,7.9-5.2,12.1c-0.6,1.3-1.3,2.7-2,4c0-0.8,0-1.6-0.1-2.3c-0.2-4.1-1.6-8-4-11.4
			c-2.4-3.3-5.3-6.2-8.7-8.5c-2.2-1.5-4.7-2.7-7.2-3.4c-0.5,5.1-1.1,10.1-0.8,14.5c0.2,4.1,1.5,8,3.9,11.3c2.5,3.3,5.6,6.2,9,8.5
			c0.8,0.6,1.6,1.1,2.3,1.5c-2.8,4.7-5.8,9.4-9.1,14c0.1-0.6,0.1-1.1,0.2-1.7c0.4-4.4-0.3-8.8-2-12.9c-1.6-3.4-3.8-6.5-6.5-9.1
			c-1.9-1.7-4-3.2-6.3-4.5c-1.5,4.9-3,9.7-3.6,14.1c-0.6,4,0,8.2,1.6,11.9c1.8,3.7,4.3,7.1,7.2,10.1c0.7,0.7,1.3,1.3,1.9,1.8
			c-1.5,1.8-3,3.5-4.6,5.2c-3,3.2-6,6.2-9.2,9c0.8-1.5,1.5-2.9,2.1-4.4c1.8-4.3,2.6-8.4,1.9-12.5c-0.9-3.9-2.6-7.7-5-10.9
			c-1.6-2.2-3.4-4.2-5.4-6c-2.6,4.1-4.9,8.3-6.8,12.8c-1.6,3.8-2,7.9-1.3,11.9c0.9,4,2.4,7.9,4.5,11.5c0.7,1.3,1.6,2.5,2.5,3.7
			c-5.1,4-10.4,7.7-15.9,11.1c0.9-1.1,1.7-2.3,2.5-3.5c2.5-3.9,4.1-7.8,4.2-11.9c-0.1-4-1.1-8-2.9-11.6c-1.2-2.4-2.6-4.7-4.2-6.9
			c-3.3,3.5-6.3,7.3-9,11.3c-2.2,3.4-3.4,7.4-3.4,11.5c0.2,4.1,1,8.2,2.4,12.1c0.5,1.4,1.1,2.8,1.8,4.1c-6.7,3.8-13.1,6.9-19,9.5
			c1.4-1.3,2.8-2.5,4-3.9c3.2-3.4,5.4-7,6.1-11s0-8.6-0.9-12c-0.7-2.6-1.7-5.1-2.9-7.5c-3.9,2.9-7.5,6.1-10.9,9.6
			c-2.8,3-4.6,6.7-5.3,10.8c-0.6,4.1-0.5,8.3,0.3,12.3c0.3,1.7,0.7,3.4,1.3,5c-1.5,0.6-3,1.1-4.5,1.6c-4.6,1.6-9.2,2.9-13.9,4v-1.2
			c0.6-0.4,1.2-0.8,1.8-1.3c3.8-2.8,6.6-5.8,8.1-9.6s1.6-8.5,1.4-11.9c-0.2-2.7-0.7-5.3-1.5-7.9c-4.5,2.4-9,4.7-12.5,7.4
			c-3.3,2.4-5.8,5.7-7.3,9.5c-0.5,1.5-1,3-1.3,4.6h-9.2V464h-48.3c0.2-2.5,0.3-5,0.5-7.6c0.6-7.8,1.6-16,2.6-25.1s2.1-19,3.2-26
			s2.4-11.4,2.8-14.6c0.2-2.2,0.2-4.4-0.2-6.6c-0.1-1.3,0-1.7,0.6-3.6s1.7-5.3,2.8-9.5s2.2-9,2.1-13.1s-1.5-7.4-3-13.5
			s-3.4-15.2-4.5-20.7s-1.6-7.7-1.6-9.2c0.1-1.3,0.4-2.5,1-3.7c0.7-1.9,1.2-3.8,1.4-5.8c0.2-2.6,0-5.9-1.4-11.7s-4.3-14.2-5.9-20.1
			c-1.3-4.9-2.2-9.8-2.6-14.9c-0.6-5.6-1.5-13.4-2.2-18.1s-1.2-6.3-1.4-7.8c-0.2-1.4-0.2-2.9,0.2-4.3c0.4-1.5,1.2-3,1.6-4.6
			c0.5-1.7,0.5-3.5,0-5.2c-0.8-2.5-1.9-4.8-3.2-7.1c-1.2-2.1-2.3-4.2-3.3-6.4c-0.8-2-1.1-3.8-1.8-5.6c-1.1-2.1-2-4.2-2.7-6.4
			c-0.8-2.8-1.3-6.6-1.2-13.3s0.7-16.2,1.5-22.8s1.5-10.3,3.3-14.7c2-4.7,4.5-9.2,7.5-13.4c2.3-3.2,5.2-6,8.5-8.1
			c3.3-2.1,7-3.7,10.7-4.9c4.6-1.5,9.3-2.7,14-3.7c4-0.8,6.4-0.9,10.7-1.5s10.4-1.7,16.5-2.8c-2.2,6.8-4.4,13.6-5.6,17.6
			c-0.6,2.2-1.3,4.3-2.1,6.4c-0.6,1.2-1.4,2.3-2,3.4c-0.2,0.3-0.3,0.6-0.4,0.9s0,0.4,0,0.5c0.1,1.6,0.9,3,2.3,3.9
			c1.7,1.3,4.7,2.5,9.7,3.4c6,1,12.1,1.6,18.2,1.6c5,0.1,10.1-0.4,15-1.6c2.8-0.6,5.3-2,7.4-4c0.8-0.9,1.6-1.8,2.3-2.8
			c-0.1-0.3,0-0.4-0.1-0.8c-0.4-2.2-1-4.4-1.9-6.5c-1-2.1-2.1-4.1-3.4-6c-1.1-1.7-1.9-3.2-4-8.3s-5.5-14.2-8.9-23.2
			c1.1-2.2,2.1-4.4,3.5-7.7s3.2-7.9,5-12.4c2-0.4,3.9-0.9,5.8-1.5c2.8-0.9,6.9-2.5,10.8-4.2s7.6-3.5,11.3-5.4
			c-4.8,14.1-9.6,28.2-12.6,37.1s-4.3,12.6-5,14.7s-0.6,2.8-0.9,3.1s-0.8,0.5-1.6,0.9c-0.9,0.4-1.7,0.9-2.4,1.5
			c-0.6,0.4-0.8,1.1-0.8,1.8c0.8,1,1.7,1.8,2.7,2.6c2.5,1.8,5.3,3,8.3,3.7c5.1,1.2,10.4,1.9,15.7,2c5.8,0.2,11.5-0.2,17.2-1.2
			c3.4-0.7,6.6-1.8,9.7-3.3c0.9-0.4,1.8-0.9,2.5-1.7c0.3-0.3,0.5-0.7,0.7-1.1c0.1-0.4,0.1-0.8,0-1.3c-0.2-1.2-0.9-2.3-2-2.8
			c-1-0.6-2.1-1-2.8-1.4s-0.8-0.8-1.9-3.5s-3-7.7-6.9-17.2s-9.6-23.7-12.5-31s-2.9-7.9-3-8.6c-0.2-0.8-0.5-1.6-0.9-2.3
			c-0.5-1.1-1.7-1.8-2.9-1.8c-3-0.1-6,0.4-8.9,1.3c-3.7,1.1-7.9,2.9-10.1,3.8s-2.6,0.8-2.8,0.6c-0.2-0.4-0.2-0.8,0-1.1
			c0.2-0.7,0.6-1.4,1.1-2.1c1-1.3,1.9-2.6,2.7-4.1c0.9-1.7,1.5-3.6,2-5.5c0.5-2,1-4,1.4-5.3c0.2-0.9,0.8-1.7,1.6-2.2
			c0.9-0.6,2.4-1.4,3.6-2.2c1.1-0.8,2.2-1.7,3-2.8c0.8-1.1,1.5-2.2,2.1-3.4c0.8-1.2,1.4-2.5,1.8-3.9c0.3-1.5,0-3.1-0.9-4.4
			c-1-1.4-2.2-2.5-3.7-3.3c-0.7-0.3-1.5-0.5-2.2-0.5c-0.4-0.2-0.8-0.4-1.1-0.8c-0.3-0.3-0.7-0.4-2.4-0.8c-2.3-0.5-4.6-0.8-6.9-0.9
			c-2-0.1-4,0.7-5.5,2.1c-1.9,1.8-3.3,4-4.3,6.5c-1,3-1.8,6.2-2.3,9.3c-0.5,3.1-1.2,6.1-2.1,9.1c-1.3,3.3-2.9,6.4-4.8,9.4
			c-2.1,3.5-4.9,7.5-8.7,13s-8.9,12.6-11.8,16.6s-3.8,4.9-4.8,5.5c-1.4,0.7-2.9,1.3-4.5,1.6c-3,0.8-6.1,1.4-9.3,1.8
			c-3.8,0.2-7.6,0.2-11.4-0.1c-4.8-0.2-11.2-0.3-17.8-0.1s-13.5,0.8-18.9,1.3s-9.3,1-11.5,1.2s-2.7,0.1-3-0.4
			c-0.4-0.9-0.6-1.9-0.5-2.8c0-1.6,0.3-3.2,0.8-4.7c0.6-1.9,1.7-4,1.9-6.7c0.1-2.8-0.5-5.6-1.8-8.1c-1.2-2.1-2.6-4-4.2-5.7
			c-1.3-1.7-2.6-3.4-3.7-5.3c-0.8-1.3-0.9-1.7-0.9-2.3c0.1-0.9,0.4-1.7,0.8-2.5c0.5-1,1.1-2,1.8-2.9c0.3-0.4,0.7-0.7,1.2-0.8
			c0.6-0.1,1.1-0.4,1.5-0.9c0.7-0.8,1.4-1.7,2-2.6c0.8-1.1,1.4-2.2,1.9-3.4c0.3-1.1,0.3-2.2,0.2-3.3c-0.1-1-0.2-2-0.3-3"/>
	</g>
</g>
</svg>
